<svg width="32" height="44" viewBox="0 0 32 44" fill="none" xmlns="http://www.w3.org/2000/svg">
<path d="M25.8214 8.25V8.83928H24.6114C24.4981 7.78818 24.0833 6.79224 23.4171 5.97143L24.2735 5.115L24.2814 5.12286L24.6978 5.53928L25.5306 4.70643L23.8649 3.04071L23.0321 3.87357L23.4406 4.28214L22.5842 5.13857C21.7638 4.47794 20.7713 4.06622 19.7242 3.95214V2.75H20.3214V1.57143H17.9642V2.75H18.5456V3.96C17.4692 4.07786 16.4871 4.51 15.6856 5.15428L14.8292 4.29785L14.8371 4.29L15.2535 3.87357L14.4206 3.04071L12.7549 4.70643L13.5878 5.53928L13.9964 5.13071L14.8528 5.98714C14.1915 6.80337 13.782 7.79436 13.6742 8.83928H12.4642V8.25H11.2856V10.6071H12.4642V10.0179H13.6742C13.7921 11.0943 14.2164 12.0686 14.8528 12.87L13.9964 13.7264L13.5878 13.3179L12.7549 14.1507L14.4206 15.8164L15.2535 14.9836L14.8371 14.5671L14.8292 14.5593L15.6856 13.7029C16.4871 14.3471 17.4614 14.7714 18.5378 14.8893V16.0993H17.9642V17.2857H20.3214V16.1071H19.7242V14.8971C20.8006 14.7871 21.7828 14.355 22.5842 13.7107L23.4406 14.5671L23.0321 14.9757L23.8649 15.8086L25.5306 14.1429L24.6978 13.31L24.2814 13.7264L24.2735 13.7343L23.4171 12.8779C24.0815 12.056 24.496 11.0606 24.6114 10.01H25.8214V10.5993H26.9999V8.24214H25.8214V8.25ZM20.5178 6.28571C20.9499 6.28571 21.3035 6.63928 21.3035 7.07143C21.3035 7.50357 20.9499 7.85714 20.5178 7.85714C20.0856 7.85714 19.7321 7.50357 19.7321 7.07143C19.7321 6.63928 20.0856 6.28571 20.5178 6.28571ZM17.7678 6.28571C18.1999 6.28571 18.5535 6.63928 18.5535 7.07143C18.5535 7.50357 18.1999 7.85714 17.7678 7.85714C17.3356 7.85714 16.9821 7.50357 16.9821 7.07143C16.9821 6.63928 17.3356 6.28571 17.7678 6.28571ZM16.3928 10.2143C15.9606 10.2143 15.6071 9.86071 15.6071 9.42857C15.6071 8.99643 15.9606 8.64286 16.3928 8.64286C16.8249 8.64286 17.1785 8.99643 17.1785 9.42857C17.1785 9.86071 16.8249 10.2143 16.3928 10.2143ZM17.7678 12.5714C17.3356 12.5714 16.9821 12.2179 16.9821 11.7857C16.9821 11.3536 17.3356 11 17.7678 11C18.1999 11 18.5535 11.3536 18.5535 11.7857C18.5535 12.2179 18.1999 12.5714 17.7678 12.5714ZM19.1428 10.2143C18.7106 10.2143 18.3571 9.86071 18.3571 9.42857C18.3571 8.99643 18.7106 8.64286 19.1428 8.64286C19.5749 8.64286 19.9285 8.99643 19.9285 9.42857C19.9285 9.86071 19.5749 10.2143 19.1428 10.2143ZM20.5178 12.5714C20.0856 12.5714 19.7321 12.2179 19.7321 11.7857C19.7321 11.3536 20.0856 11 20.5178 11C20.9499 11 21.3035 11.3536 21.3035 11.7857C21.3035 12.2179 20.9499 12.5714 20.5178 12.5714ZM21.8928 10.2143C21.4606 10.2143 21.1071 9.86071 21.1071 9.42857C21.1071 8.99643 21.4606 8.64286 21.8928 8.64286C22.3249 8.64286 22.6785 8.99643 22.6785 9.42857C22.6785 9.86071 22.3249 10.2143 21.8928 10.2143Z" fill="#373737"/>
<g clip-path="url(#clip0)">
<path d="M8.9285 31.4286C11.0946 31.4286 12.8571 29.6661 12.8571 27.5C12.8571 25.3339 11.0946 23.5714 8.9285 23.5714C6.76239 23.5714 4.99993 25.3339 4.99993 27.5C4.99993 29.6661 6.76239 31.4286 8.9285 31.4286ZM26.2142 25.1429H15.2142C14.7801 25.1429 14.4285 25.4945 14.4285 25.9286V33H3.4285V22.7857C3.4285 22.3516 3.07689 22 2.64279 22H1.07136C0.637252 22 0.285645 22.3516 0.285645 22.7857V40.0714C0.285645 40.5055 0.637252 40.8571 1.07136 40.8571H2.64279C3.07689 40.8571 3.4285 40.5055 3.4285 40.0714V37.7143H28.5714V40.0714C28.5714 40.5055 28.923 40.8571 29.3571 40.8571H30.9285C31.3626 40.8571 31.7142 40.5055 31.7142 40.0714V30.6429C31.7142 27.6051 29.252 25.1429 26.2142 25.1429Z" fill="#373737"/>
</g>
<defs>
<clipPath id="clip0">
<rect width="31.4286" height="25.1429" fill="white" transform="translate(0.285645 18.8571)"/>
</clipPath>
</defs>
</svg>
