<svg width="16" height="16" viewBox="0 0 16 16" fill="none" xmlns="http://www.w3.org/2000/svg">
<g clip-path="url(#clip0)">
<path d="M12.6479 0.572777L7.99993 5.22103C6.45068 3.67228 4.90093 2.12203 3.35143 0.572777C1.55893 -1.21972 -1.21957 1.55978 0.571435 3.35278C2.12118 4.90103 3.67143 6.45153 5.21943 8.00078C3.67073 9.55073 2.12139 11.1001 0.571435 12.6488C-1.21957 14.4408 1.55918 17.2195 3.35143 15.4288C4.90068 13.879 6.45043 12.329 7.99968 10.7803L12.6477 15.4288C14.4402 17.2208 17.2194 14.441 15.4277 12.6488C13.8779 11.099 12.3287 9.54978 10.7784 8.00028C12.3284 6.45053 13.8777 4.90078 15.4277 3.35128C17.2197 1.55978 14.4404 -1.21972 12.6477 0.573777" fill="#EC1C24"/>
</g>
<defs>
<clipPath id="clip0">
<rect width="16" height="16" fill="white"/>
</clipPath>
</defs>
</svg>
