<svg width="16" height="16" viewBox="0 0 16 16" fill="none" xmlns="http://www.w3.org/2000/svg">
<g clip-path="url(#clip0)">
<path d="M12.6479 0.572746L7.99993 5.221C6.45068 3.67225 4.90093 2.122 3.35143 0.572746C1.55893 -1.21975 -1.21957 1.55975 0.571435 3.35275C2.12118 4.901 3.67143 6.4515 5.21943 8.00075C3.67073 9.5507 2.12139 11.1 0.571435 12.6487C-1.21957 14.4407 1.55918 17.2195 3.35143 15.4287C4.90068 13.879 6.45043 12.329 7.99968 10.7802L12.6477 15.4287C14.4402 17.2207 17.2194 14.441 15.4277 12.6487C13.8779 11.099 12.3287 9.54975 10.7784 8.00025C12.3284 6.4505 13.8777 4.90075 15.4277 3.35125C17.2197 1.55975 14.4404 -1.21975 12.6477 0.573746" fill="#4E4B4B"/>
</g>
<defs>
<clipPath id="clip0">
<rect width="16" height="16" fill="white"/>
</clipPath>
</defs>
</svg>
