<svg width="46" height="46" viewBox="0 0 46 46" fill="none" xmlns="http://www.w3.org/2000/svg">
<path d="M40.2502 17.25C38.1418 17.25 36.4168 15.525 36.4168 13.4167C36.4168 11.3083 40.2502 5.75 40.2502 5.75C40.2502 5.75 44.0835 11.3083 44.0835 13.4167C44.0835 15.525 42.3585 17.25 40.2502 17.25ZM33.5418 13.4167C33.5418 12.0175 34.3277 10.1392 35.3052 8.31833C31.8609 5.4188 27.5024 3.83021 23.0002 3.83333C12.401 3.83333 3.8335 12.4583 3.8335 23C3.8335 33.5417 12.401 42.1667 23.0002 42.1667C33.5418 42.1667 42.1668 33.5417 42.1668 23C42.1668 21.9458 42.0518 20.9108 41.8985 19.895C41.3607 20.0398 40.807 20.1171 40.2502 20.125C36.551 20.125 33.5418 17.1158 33.5418 13.4167V13.4167ZM29.9385 14.145L31.9702 16.1767L29.9385 18.2083L31.9702 20.24L29.9385 22.2717L25.8752 18.2083L29.9385 14.145V14.145ZM14.0302 16.1767L16.0618 14.145L20.1252 18.2083L16.0618 22.2717L14.0302 20.24L16.0618 18.2083L14.0302 16.1767ZM29.5935 32.5833C28.271 30.3025 25.8177 28.75 23.0002 28.75C20.1827 28.75 17.7293 30.3025 16.4068 32.5833H13.1868C13.7618 31.1267 14.6435 29.8425 15.7552 28.75L10.0435 25.4917C9.181 25.99 8.10766 26.0283 7.18766 25.4917C6.5389 25.1044 6.06854 24.4774 5.87819 23.7462C5.68785 23.015 5.7928 22.2382 6.17038 21.5838C6.54796 20.9293 7.16785 20.4497 7.89613 20.2484C8.62442 20.0472 9.40264 20.1406 10.0627 20.5083C10.9827 21.0833 11.5002 22.0417 11.5002 23L18.3427 26.9483C19.7418 26.2583 21.3135 25.875 23.0002 25.875C27.466 25.875 31.2802 28.6542 32.8135 32.5833H29.5935V32.5833Z" fill="#373737"/>
</svg>
