<svg width="37" height="45" viewBox="0 0 37 45" fill="none" xmlns="http://www.w3.org/2000/svg">
<path d="M34.9109 5.25V5.625H33.9919C33.9059 4.95612 33.5908 4.32234 33.0848 3.8L33.7353 3.255L33.7413 3.26L34.0575 3.525L34.6901 2.995L33.425 1.935L32.7924 2.465L33.1027 2.725L32.4522 3.27C31.8291 2.8496 31.0753 2.58759 30.28 2.515V1.75H30.7335V1H28.9432V1.75H29.3848V2.52C28.5672 2.595 27.8213 2.87 27.2125 3.28L26.5621 2.735L26.568 2.73L26.8843 2.465L26.2517 1.935L24.9866 2.995L25.6192 3.525L25.9295 3.265L26.58 3.81C26.0777 4.32942 25.7667 4.96005 25.6848 5.625H24.7658V5.25H23.8706V6.75H24.7658V6.375H25.6848C25.7743 7.06 26.0966 7.68 26.58 8.19L25.9295 8.735L25.6192 8.475L24.9866 9.005L26.2517 10.065L26.8843 9.535L26.568 9.27L26.5621 9.265L27.2125 8.72C27.8213 9.13 28.5613 9.4 29.3788 9.475V10.245H28.9432V11H30.7335V10.25H30.28V9.48C31.0975 9.41 31.8435 9.135 32.4522 8.725L33.1027 9.27L32.7924 9.53L33.425 10.06L34.6901 9L34.0575 8.47L33.7413 8.735L33.7353 8.74L33.0848 8.195C33.5895 7.67197 33.9043 7.03855 33.9919 6.37H34.9109V6.745H35.8061V5.245H34.9109V5.25ZM30.8827 4C31.2109 4 31.4795 4.225 31.4795 4.5C31.4795 4.775 31.2109 5 30.8827 5C30.5545 5 30.2859 4.775 30.2859 4.5C30.2859 4.225 30.5545 4 30.8827 4ZM28.794 4C29.1222 4 29.3908 4.225 29.3908 4.5C29.3908 4.775 29.1222 5 28.794 5C28.4658 5 28.1972 4.775 28.1972 4.5C28.1972 4.225 28.4658 4 28.794 4ZM27.7496 6.5C27.4214 6.5 27.1529 6.275 27.1529 6C27.1529 5.725 27.4214 5.5 27.7496 5.5C28.0779 5.5 28.3464 5.725 28.3464 6C28.3464 6.275 28.0779 6.5 27.7496 6.5ZM28.794 8C28.4658 8 28.1972 7.775 28.1972 7.5C28.1972 7.225 28.4658 7 28.794 7C29.1222 7 29.3908 7.225 29.3908 7.5C29.3908 7.775 29.1222 8 28.794 8ZM29.8383 6.5C29.5101 6.5 29.2416 6.275 29.2416 6C29.2416 5.725 29.5101 5.5 29.8383 5.5C30.1666 5.5 30.4351 5.725 30.4351 6C30.4351 6.275 30.1666 6.5 29.8383 6.5ZM30.8827 8C30.5545 8 30.2859 7.775 30.2859 7.5C30.2859 7.225 30.5545 7 30.8827 7C31.2109 7 31.4795 7.225 31.4795 7.5C31.4795 7.775 31.2109 8 30.8827 8ZM31.9271 6.5C31.5988 6.5 31.3303 6.275 31.3303 6C31.3303 5.725 31.5988 5.5 31.9271 5.5C32.2553 5.5 32.5238 5.725 32.5238 6C32.5238 6.275 32.2553 6.5 31.9271 6.5Z" fill="#373737"/>
<g clip-path="url(#clip0)">
<path d="M16.8054 10.2013C17.6495 10.2013 18.4263 10.335 19.1361 10.6025C21.2428 11.4722 22.4867 13.1252 22.5025 14.9684V27.6649C22.1073 29.6833 19.2906 29.1344 19.2224 27.6649V15.6764C18.9714 14.9927 17.3619 15.2762 17.3234 15.6764V43.1933C16.9142 46.0031 12.4874 45.1784 12.3745 43.1462V26.2961C12.0915 25.2093 10.2286 25.7031 10.1878 26.3433C10.2668 31.9441 10.2453 37.5452 10.2453 43.1462C9.80384 45.9415 5.39861 45.2263 5.29638 43.1933L5.23886 15.6764C4.98086 15.0075 3.48946 15.264 3.45489 15.6764V27.6649C3.05968 29.6833 0.24302 29.1344 0.174805 27.6649V14.9684C0.214627 13.2038 1.00312 11.436 2.87945 10.6025C3.4933 10.335 4.24138 10.2013 5.12374 10.2013L16.8054 10.2013V10.2013ZM16.7474 4.43539C16.7474 6.885 14.3263 8.87081 11.3397 8.87081C8.35312 8.87081 5.93199 6.885 5.93199 4.43539C5.93194 1.98581 8.35308 0 11.3396 0C14.3263 0 16.7474 1.98581 16.7474 4.43539V4.43539Z" fill="#373737"/>
</g>
<defs>
<clipPath id="clip0">
<rect width="22.6774" height="45" fill="white"/>
</clipPath>
</defs>
</svg>
