<svg width="35" height="52" viewBox="0 0 35 52" fill="none" xmlns="http://www.w3.org/2000/svg">
<path d="M17.4997 0.0747147L0.745117 51.8879H34.2544L17.4997 0.0747147ZM18.6421 25.8995C21.399 26.9903 23.1354 31.8989 22.5261 36.8894C22.0692 40.2981 20.546 43.0252 18.6421 43.7887V25.8995V25.8995ZM16.3574 43.7069C13.6005 42.6161 11.8641 37.7075 12.4734 32.7989C12.9303 29.3083 14.4534 26.5813 16.3574 25.8177V43.7069ZM24.9327 34.7623C24.8979 31.6345 24.248 28.6288 23.0974 26.2744C21.9467 23.92 20.3691 22.3677 18.6421 21.8908V11.7736L30.2942 47.7974H19.1295C22.5109 46.4339 24.9175 41.0617 24.9327 34.8441V34.7623ZM16.3574 11.7736V21.8908C12.321 22.9816 9.53368 29.7446 10.1582 36.9985C10.6456 42.3434 12.8846 46.7612 15.87 47.9338H4.7053L16.3574 11.7736V11.7736Z" fill="#373737"/>
</svg>
