<svg width="36" height="53" viewBox="0 0 36 53" fill="none" xmlns="http://www.w3.org/2000/svg">
<g clip-path="url(#clip0)">
<path d="M15.8401 18.2013C16.6356 18.2013 17.3678 18.335 18.0368 18.6025C20.0225 19.4722 21.195 21.1252 21.2099 22.9684V35.6649C20.8375 37.6833 18.1825 37.1344 18.1182 35.6649V23.6764C17.8816 22.9927 16.3646 23.2762 16.3283 23.6764V51.1933C15.9425 54.0031 11.77 53.1784 11.6636 51.1462V34.2961C11.3968 33.2093 9.64092 33.7031 9.60243 34.3433C9.6769 39.9441 9.65669 45.5452 9.65669 51.1462C9.24056 53.9415 5.08834 53.2263 4.99198 51.1933L4.93777 23.6764C4.69458 23.0075 3.28883 23.264 3.25625 23.6764V35.6649C2.88374 37.6833 0.228848 37.1344 0.164551 35.6649V22.9684C0.202086 21.2038 0.945297 19.436 2.71386 18.6025C3.29245 18.335 3.99757 18.2013 4.82926 18.2013L15.8401 18.2013V18.2013ZM15.7854 12.4354C15.7854 14.885 13.5033 16.8708 10.6882 16.8708C7.87317 16.8708 5.59109 14.885 5.59109 12.4354C5.59104 9.98581 7.87312 8 10.6881 8C13.5033 8 15.7854 9.98581 15.7854 12.4354V12.4354Z" fill="#373737"/>
</g>
<g clip-path="url(#clip1)">
<path d="M34.0304 0.703125L27.8446 7.95234L24.1875 4.70391L22.5 6.20391L28.1241 11.2031L36 2.20312L34.0304 0.703125Z" fill="#373737"/>
</g>
<defs>
<clipPath id="clip0">
<rect width="21.375" height="45" fill="white" transform="translate(0 8)"/>
</clipPath>
<clipPath id="clip1">
<rect width="13.5" height="12" fill="white" transform="translate(22.5)"/>
</clipPath>
</defs>
</svg>
