<svg width="36" height="58" viewBox="0 0 36 58" fill="none" xmlns="http://www.w3.org/2000/svg">
<path d="M34.3233 1.11539V6.69231H31.0586V45.7308C31.0586 51.8933 25.2148 56.8846 17.9998 56.8846C10.7848 56.8846 4.94098 51.8933 4.94098 45.7308V6.69231H1.67627V1.11539H34.3233ZM24.5292 23.4231H11.4704V45.7308C11.4704 47.2099 12.1583 48.6284 13.3828 49.6743C14.6073 50.7201 16.2681 51.3077 17.9998 51.3077C19.7315 51.3077 21.3923 50.7201 22.6168 49.6743C23.8413 48.6284 24.5292 47.2099 24.5292 45.7308V23.4231ZM21.2645 37.3654C22.1304 37.3654 22.9607 37.6592 23.573 38.1821C24.1852 38.705 24.5292 39.4143 24.5292 40.1539C24.5292 40.8934 24.1852 41.6027 23.573 42.1256C22.9607 42.6485 22.1304 42.9423 21.2645 42.9423C20.3986 42.9423 19.5683 42.6485 18.956 42.1256C18.3438 41.6027 17.9998 40.8934 17.9998 40.1539C17.9998 39.4143 18.3438 38.705 18.956 38.1821C19.5683 37.6592 20.3986 37.3654 21.2645 37.3654V37.3654ZM14.7351 29C15.6009 29 16.4313 29.2938 17.0436 29.8167C17.6558 30.3397 17.9998 31.0489 17.9998 31.7885C17.9998 32.528 17.6558 33.2373 17.0436 33.7602C16.4313 34.2831 15.6009 34.5769 14.7351 34.5769C13.8692 34.5769 13.0388 34.2831 12.4266 33.7602C11.8143 33.2373 11.4704 32.528 11.4704 31.7885C11.4704 31.0489 11.8143 30.3397 12.4266 29.8167C13.0388 29.2938 13.8692 29 14.7351 29V29ZM24.5292 6.69231H11.4704V17.8462H24.5292V6.69231Z" fill="#373737"/>
</svg>
